<svg aria-hidden="true" style="position: absolute; width: 0; height: 0; overflow: hidden;" version="1.1" xmlns="http://www.w3.org/2000/svg" xmlns:xlink="http://www.w3.org/1999/xlink">
<defs>
<symbol id="icon-clutch" viewBox="0 0 28 32">
<path d="M15.812 24.713c2.258 0 4.518-0.968 6.131-2.258l0.967-0.968 5.163 5.163-1.29 0.968c-2.904 2.582-6.777 4.195-10.972 4.195-9.036 0-15.812-6.776-15.812-15.811s6.776-15.812 15.812-15.812c4.194 0 8.067 1.613 10.972 4.195l1.29 0.968-5.163 4.84-0.967-0.968c-1.613-1.613-3.873-2.259-6.131-2.259-5.163 0-8.713 3.55-8.713 8.713s3.55 9.035 8.713 9.035zM20.652 16c0 2.852-2.311 5.163-5.163 5.163-2.851 0-5.163-2.311-5.163-5.163s2.312-5.163 5.163-5.163c2.852 0 5.163 2.311 5.163 5.163z"></path>
</symbol>
<symbol id="icon-pangea" viewBox="0 0 32 32">
<path d="M9.609 27.35c0.541 0 1.002-0.174 1.381-0.523s0.57-0.767 0.57-1.253v-7.789l5.249-0.032c1.37 0 2.533-0.206 3.488-0.619s1.724-0.946 2.305-1.602c0.581-0.656 0.999-1.364 1.252-2.126s0.368-1.496 0.345-2.205c0.046-1.132-0.259-2.268-0.915-3.411-0.023-0.021-0.040-0.048-0.052-0.079-0.035-0.032-0.063-0.058-0.086-0.079-0.357-0.55-0.817-1.042-1.381-1.475-0.495-0.476-1.079-0.843-1.753-1.103s-1.557-0.389-2.651-0.389c-0.184-0.011-0.368-0.016-0.553-0.016v0.016h-1.951l-3.333-0.016h-1.917c-0.541 0-1.002 0.175-1.381 0.524s-0.57 0.767-0.57 1.253c0 0.497 0.193 0.928 0.578 1.293s0.849 0.547 1.39 0.547l2.193-0.016h4.99c0.956 0 1.733 0.299 2.331 0.896s0.898 1.293 0.898 2.086h0.017c-0.023 0.814-0.331 1.512-0.924 2.094s-1.361 0.873-2.305 0.873c-0.357 0-1.019-0.003-1.986-0.008s-1.802-0.008-2.504-0.008h-0.501l-2.193-0.016c-0.564 0-1.042 0.201-1.433 0.603-0.357 0.338-0.535 0.746-0.535 1.221v9.582c0 0.486 0.19 0.904 0.57 1.253s0.835 0.523 1.364 0.523z"></path>
</symbol>
<symbol id="icon-dev" viewBox="0 0 34 32">
<path d="M9.485 12.286c0.286 0 0.571 0.107 0.857 0.321s0.429 0.512 0.429 0.893v5c0 0.429-0.143 0.738-0.429 0.929s-0.571 0.286-0.857 0.286h-1.214v-7.429h1.214zM30.628 0c0.857 0 1.595 0.31 2.214 0.929s0.929 1.357 0.929 2.214v25.714c0 0.857-0.309 1.595-0.929 2.214s-1.357 0.929-2.214 0.929h-25.714c-0.857 0-1.595-0.309-2.214-0.929s-0.929-1.357-0.929-2.214v-25.714c0-0.857 0.31-1.595 0.929-2.214s1.357-0.929 2.214-0.929h25.714zM12.771 18.5v-5.071c0-0.81-0.274-1.571-0.821-2.286s-1.393-1.071-2.536-1.071h-3.429v11.786h3.357c1.191 0 2.060-0.345 2.607-1.036s0.821-1.464 0.821-2.322zM19.985 12.214v-2.143h-4.5c-0.429 0-0.774 0.143-1.036 0.429s-0.393 0.643-0.393 1.071v8.928c0 0.381 0.143 0.714 0.429 1s0.643 0.405 1.071 0.357h4.428v-2.071h-3.786v-2.714h2.286v-2.143h-2.286v-2.714h3.786zM27.414 20.429l2.714-10.357h-2.357l-2.071 8.143-2.143-8.143h-2.286l2.714 10.357c0.381 0.905 0.917 1.393 1.607 1.464s1.298-0.417 1.822-1.464z"></path>
</symbol>
<symbol id="icon-dribbble" viewBox="0 0 34 32">
<path d="M29.083 4.688c-3.125-3.125-6.896-4.688-11.313-4.688s-8.188 1.562-11.313 4.688-4.688 6.896-4.688 11.313c0 4.417 1.562 8.188 4.688 11.313s6.896 4.687 11.313 4.687c4.417 0 8.188-1.563 11.313-4.687s4.687-6.896 4.687-11.313c0-4.417-1.563-8.188-4.687-11.313zM17.771 2.375c3.458 0 6.479 1.146 9.062 3.438-0.208 0.292-0.5 0.635-0.875 1.031s-1.156 1.010-2.344 1.844-2.51 1.521-3.969 2.063c-1.542-2.875-3.229-5.542-5.063-8 1.042-0.25 2.104-0.375 3.188-0.375zM11.958 3.625c1.833 2.5 3.521 5.146 5.062 7.938-4.375 1.167-8.583 1.729-12.625 1.688 0.458-2.125 1.354-4.031 2.688-5.719s2.958-2.99 4.875-3.906zM4.083 16c0-0.125 0-0.25 0-0.375 4.667 0.083 9.354-0.563 14.062-1.938 0.417 0.75 0.792 1.521 1.125 2.313-0.208 0.042-0.396 0.083-0.563 0.125-1.625 0.542-3.156 1.292-4.594 2.25s-2.625 1.958-3.563 3c-0.938 1.042-1.604 1.833-2 2.375s-0.698 1.021-0.906 1.438c-2.375-2.625-3.563-5.687-3.563-9.188zM17.771 29.687c-3.125 0-5.917-0.958-8.375-2.875 0.125-0.25 0.281-0.531 0.469-0.844s0.583-0.844 1.188-1.594c0.604-0.75 1.271-1.448 2-2.094s1.729-1.354 3-2.125c1.271-0.771 2.615-1.406 4.031-1.906 0.042 0 0.083 0 0.125 0 1.375 3.583 2.333 7.042 2.875 10.375-1.667 0.708-3.438 1.062-5.313 1.062zM25.396 27.375c-0.5-3.042-1.375-6.292-2.625-9.75 2.917-0.5 5.75-0.313 8.5 0.563-0.625 3.875-2.583 6.937-5.875 9.187zM21.896 15.438c-0.083-0.25-0.167-0.479-0.25-0.688-0.292-0.667-0.604-1.333-0.938-2 1.5-0.625 2.886-1.375 4.156-2.25s2.104-1.531 2.5-1.969c0.396-0.438 0.719-0.823 0.969-1.156 2.042 2.5 3.083 5.333 3.125 8.5-3.25-0.667-6.438-0.813-9.563-0.438z"></path>
</symbol>
<symbol id="icon-facebook" viewBox="0 0 32 32">
<path d="M30.222 0h-28.444c-1.067 0-1.778 0.711-1.778 1.778v28.444c0 0.889 0.711 1.778 1.778 1.778h15.289v-12.444h-4.089v-4.8h4.089v-3.556c0-4.089 2.489-6.4 6.222-6.4 1.778 0 3.2 0.178 3.733 0.178v4.267h-2.489c-1.956 0-2.311 0.889-2.311 2.311v3.022h4.8l-0.711 4.978h-4.089v12.444h8c0.889 0 1.778-0.711 1.778-1.778 0 0 0 0 0 0v-28.444c0-1.067-0.711-1.778-1.778-1.778z"></path>
</symbol>
<symbol id="icon-instagram" viewBox="0 0 32 32">
<path d="M32 9.422c0-1.778-0.356-2.844-0.711-3.911s-1.067-1.956-1.778-2.844c-0.889-0.889-1.778-1.422-2.844-1.778s-2.133-0.711-3.911-0.711c-1.778-0.178-2.489-0.178-6.756-0.178s-4.8 0-6.578 0.178c-1.778 0-2.844 0.356-3.911 0.711s-1.956 1.067-2.844 1.778c-0.889 0.889-1.422 1.778-1.778 2.844s-0.711 2.133-0.711 3.911c-0.178 1.778-0.178 2.311-0.178 6.578s0 4.8 0.178 6.578c0 1.778 0.356 2.844 0.711 3.911s1.067 1.956 1.778 2.844c0.889 0.889 1.778 1.422 2.844 1.778s2.133 0.711 3.911 0.711c1.6 0.178 2.311 0.178 6.578 0.178s4.8 0 6.578-0.178c1.778 0 2.844-0.356 3.911-0.711 2.133-0.889 3.911-2.489 4.622-4.622 0.356-1.067 0.711-2.133 0.711-3.911s0.178-2.311 0.178-6.578c0-4.267 0-4.8 0-6.578zM28.978 22.4c0 1.6-0.356 2.489-0.533 3.022-0.533 1.422-1.6 2.489-3.022 3.022-0.533 0.178-1.422 0.533-3.022 0.533s-2.133 0.178-6.4 0.178c-4.267 0-4.8 0-6.4-0.178-1.6 0-2.489-0.356-3.022-0.533-0.711-0.178-1.244-0.711-1.778-1.244s-0.889-1.067-1.244-1.778c-0.178-0.533-0.533-1.422-0.533-3.022s-0.178-2.133-0.178-6.4c0-4.267 0-4.8 0.178-6.4 0-1.6 0.356-2.489 0.533-3.022 0.178-0.711 0.711-1.244 1.244-1.778s1.067-1.067 1.778-1.244c0.533-0.178 1.422-0.533 3.022-0.533s2.133-0.178 6.4-0.178c4.267 0 4.8 0 6.4 0.178 1.6 0 2.489 0.356 3.022 0.533 0.711 0.178 1.244 0.711 1.778 1.244s0.889 1.067 1.244 1.778c0.178 0.533 0.533 1.422 0.533 3.022s0.178 2.133 0.178 6.4c0 4.267 0 4.8-0.178 6.4z"></path>
<path d="M16 7.822c-4.622 0-8.178 3.556-8.178 8.178s3.733 8.178 8.178 8.178c4.622 0 8.178-3.733 8.178-8.178 0-4.622-3.556-8.178-8.178-8.178zM16 21.333c-3.022 0-5.333-2.311-5.333-5.333s2.311-5.333 5.333-5.333c3.022 0 5.333 2.311 5.333 5.333s-2.311 5.333-5.333 5.333z"></path>
<path d="M26.489 7.467c0 1.067-0.889 1.956-1.956 1.956s-1.956-0.889-1.956-1.956c0-1.067 0.889-1.956 1.956-1.956s1.956 0.889 1.956 1.956z"></path>
</symbol>
<symbol id="icon-linkedin" viewBox="0 0 34 32">
<path d="M4.089 0c-2.489 0-4.089 1.6-4.089 3.733s1.6 3.733 3.911 3.733v0c2.489 0 4.089-1.6 4.089-3.733s-1.422-3.733-3.911-3.733z"></path>
<path d="M0.356 10.489h7.111v21.511h-7.111v-21.511z"></path>
<path d="M25.244 9.956c-3.911 0-6.4 3.556-6.4 3.556v-3.022h-7.111v21.511h7.111v-12.089c0-0.711 0-1.244 0.178-1.778 0.533-1.244 1.778-2.667 3.733-2.667 2.667 0 3.556 1.956 3.556 4.8v11.733h7.111v-12.444c0-6.578-3.556-9.6-8.178-9.6z"></path>
</symbol>
<symbol id="icon-twitter" viewBox="0 0 41 32">
<path d="M12.444 32c14.933 0 22.933-12.267 22.933-22.933 0-0.356 0-0.711 0-1.067 1.6-1.067 3.022-2.489 4.089-4.267-1.422 0.711-3.022 1.067-4.622 1.244 1.6-1.067 3.022-2.667 3.556-4.444-1.6 0.889-3.378 1.6-5.156 1.956-1.422-1.6-3.556-2.489-5.867-2.489-4.444 0-8 3.556-8 8 0 0.711 0 1.244 0.178 1.778-6.756-0.356-12.622-3.556-16.711-8.356-0.711 1.244-1.244 2.667-1.244 4.089 0 2.844 1.422 5.333 3.556 6.756-1.244 0-2.489-0.356-3.733-1.067 0 0 0 0 0 0.178 0 3.911 2.844 7.111 6.4 8-0.356 0-1.067 0.178-1.956 0.178-0.533 0-1.067 0-1.6-0.178 1.067 3.2 4.089 5.511 7.467 5.689-2.489 2.133-6.044 3.378-9.778 3.378-0.711 0-1.244 0-1.956 0 3.556 2.133 7.822 3.556 12.444 3.556z"></path>
</symbol>
<symbol id="icon-github" viewBox="0 0 32 32">
<path d="M29.9 8.4c-1.5-2.5-3.4-4.4-5.9-5.9-2.5-1.4-5.1-2.1-8-2.1s-5.6 0.7-8 2.1c-2.5 1.5-4.4 3.4-5.9 5.9-1.4 2.5-2.1 5.1-2.1 8 0 3.5 1 6.6 3.1 9.4 2 2.8 4.7 4.7 7.9 5.8 0.4 0.1 0.7 0 0.8-0.1 0.2-0.2 0.3-0.4 0.3-0.6v-3l-0.5 0.1h-1.2c-0.5 0-0.9-0.1-1.4-0.1-0.5-0.1-1-0.3-1.4-0.6s-0.7-0.8-0.9-1.3l-0.2-0.5c-0.1-0.3-0.4-0.7-0.7-1.1s-0.6-0.7-0.9-0.8l-0.4-0.4c-0.1-0.1-0.1-0.2-0.2-0.3 0-0.1 0-0.2 0.1-0.2 0.1-0.1 0.3-0.1 0.6-0.1l0.4 0.1c0.3 0.1 0.6 0.2 1 0.5s0.7 0.6 1 1.1c0.3 0.6 0.7 1 1.2 1.3 0.4 0.3 0.9 0.4 1.3 0.4s0.9 0 1.2-0.1l0.9-0.3c0.1-0.9 0.5-1.6 1-2.1-0.8-0.1-1.5-0.2-2.1-0.4s-1.3-0.4-2-0.8-1.2-0.8-1.7-1.4c-0.4-0.6-0.8-1.3-1.1-2.2s-0.4-1.9-0.4-3.1c0-1.7 0.5-3.1 1.6-4.3-0.4-1.3-0.3-2.7 0.3-4.3 0.4-0.1 1 0 1.8 0.3s1.4 0.6 1.7 0.8c0.4 0.2 0.7 0.4 0.9 0.6 1.3-0.4 2.6-0.5 4-0.5s2.7 0.2 4 0.5l0.8-0.5c0.5-0.3 1.2-0.6 1.9-0.9s1.3-0.4 1.7-0.3c0.6 1.6 0.7 3 0.2 4.2 1.1 1.2 1.6 2.6 1.6 4.3 0 1.2-0.1 2.2-0.4 3.1s-0.7 1.6-1.1 2.2c-0.5 0.5-1 1-1.7 1.4s-1.3 0.6-2 0.8c-0.6 0.2-1.3 0.3-2.1 0.4 0.7 0.6 1.1 1.6 1.1 3v4.4c0 0.2 0.1 0.5 0.3 0.6 0.2 0.2 0.4 0.2 0.8 0.1 3.2-1.1 5.9-3 7.9-5.8s3.1-5.9 3.1-9.4c-0.1-2.8-0.8-5.5-2.2-7.9z"></path>
</symbol>
<symbol id="icon-arrow-left" viewBox="0 0 32 32">
<path d="M1.8 16c0 0.2 0 0.2 0 0.4s0.2 0.4 0.2 0.4l7.2 7.2c0.6 0.6 1.2 0.6 1.6 0s0.6-1.2 0-1.6l-5-5.2h23.2c0.4 0 0.6-0.2 0.8-0.4s0.4-0.6 0.4-0.8c0-0.4-0.2-0.6-0.4-0.8s-0.6-0.4-0.8-0.4h-23.2l5-5.2c0.6-0.6 0.6-1.2 0-1.6-0.4-0.6-1-0.6-1.6 0l-7.2 7.2c0 0-0.2 0.2-0.2 0.4 0 0 0 0.2 0 0.4z"></path>
</symbol>
<symbol id="icon-arrow-right" viewBox="0 0 32 32">
<path d="M30.2 16c0-0.2 0-0.4 0-0.4 0-0.2-0.2-0.2-0.2-0.4l-7.2-7.2c-0.6-0.6-1.2-0.6-1.6 0s-0.6 1.2 0 1.6l5 5.2h-23.2c-0.4 0-0.8 0.2-1 0.4s-0.2 0.4-0.2 0.8c0 0.4 0.2 0.6 0.4 0.8s0.6 0.4 0.8 0.4h23.2l-5 5.2c-0.6 0.6-0.6 1.2 0 1.6 0.6 0.6 1.2 0.6 1.6 0l7.2-7.2c0.2 0 0.2-0.2 0.2-0.4 0 0 0-0.2 0-0.4z"></path>
</symbol>
<symbol id="icon-arrow-up" viewBox="0 0 32 32">
<path d="M16 1.8c-0.2 0-0.4 0-0.4 0-0.2 0-0.4 0.2-0.4 0.2l-7.2 7.2c-0.6 0.6-0.6 1.2 0 1.8s1.2 0.6 1.6 0l5.2-5v23.2c0 0.4 0.2 0.6 0.4 0.8s0.6 0.4 0.8 0.4c0.4 0 0.6-0.2 0.8-0.4s0.4-0.6 0.4-0.8v-23.4l5.2 5c0.6 0.6 1.2 0.6 1.6 0 0.6-0.6 0.6-1.2 0-1.6l-7.2-7.2c0-0.2-0.2-0.2-0.4-0.2 0 0-0.2 0-0.4 0z"></path>
</symbol>
<symbol id="icon-arrow-down" viewBox="0 0 32 32">
<path d="M16 30.2c0.2 0 0.2 0 0.4 0s0.2-0.2 0.4-0.2l7.2-7.2c0.6-0.6 0.6-1.2 0-1.6s-1.2-0.6-1.6 0l-5.2 5v-23.2c0-0.4-0.2-0.6-0.4-0.8-0.2-0.4-0.4-0.4-0.8-0.4s-0.6 0-0.8 0.2c-0.2 0.2-0.4 0.6-0.4 1v23.2l-5.2-5c-0.6-0.6-1.2-0.6-1.6 0s-0.6 1.2 0 1.6l7.2 7.2c0 0.2 0.2 0.2 0.4 0.2 0 0 0.2 0 0.4 0z"></path>
</symbol>
</defs>
</svg>
