<?xml version="1.0" encoding="utf-8"?>
<!-- Generator: Adobe Illustrator 25.2.0, SVG Export Plug-In . SVG Version: 6.00 Build 0)  -->
<svg version="1.1" id="Layer_1" xmlns="http://www.w3.org/2000/svg" xmlns:xlink="http://www.w3.org/1999/xlink" x="0px" y="0px"
	 viewBox="0 0 973 934.8" style="enable-background:new 0 0 973 934.8;" xml:space="preserve">
<style type="text/css">
	.st0{fill:#1A1A1A;}
</style>
<path class="st0" d="M897.8,842.5l-156-98.4l-9.4-5.9L609.9,661c45.2-33.7,78.3-82.9,91.2-139.7c3.9-17.3,6-35.3,6-53.8
	c0-133.2-108-241.3-241.2-241.3s-241.3,108-241.3,241.3c0,133.2,108,241.2,241.3,241.2c12.5,0,24.7-1,36.7-2.8l-94.7-154.7
	l165.4,104.3l23.3,14.7l134,84.5c-41.4,38.2-91.1,67.6-146.1,85.1c-37.4,11.9-77.2,18.3-118.6,18.3
	c-215.8,0-390.7-174.9-390.7-390.7c0-215.8,174.9-390.7,390.7-390.7s390.7,174.9,390.7,390.7c0,76.9-22.2,148.6-60.6,209
	L897.8,842.5z"/>
<path class="st0" d="M1308.4-164.5v59.7c0,6.3-1.7,11.3-5,15c-3.3,3.6-7.8,5.5-13.5,5.5c-5.6,0-10-1.8-13.4-5.5
	c-3.4-3.6-5.1-8.6-5.1-15v-59.7h-38.7v64.6c0,14.7,3.7,26.3,11.2,34.8c7.5,8.5,17.7,12.8,30.6,12.8c7.5,0,14.2-1.6,20-4.7
	c5.8-3.1,10.4-7.2,13.7-12.2v15.9h39.1v-111.2H1308.4z"/>
<path class="st0" d="M1382.8-174.8c5.7,0,10.4-1.9,13.9-5.6c3.5-3.7,5.3-8.4,5.3-13.9c0-5.7-1.8-10.5-5.3-14.2
	c-3.5-3.8-8.2-5.7-13.9-5.7c-5.9,0-10.6,1.9-14.1,5.7c-3.5,3.8-5.3,8.5-5.3,14.2c0,5.6,1.8,10.2,5.3,13.9
	C1372.2-176.6,1376.9-174.8,1382.8-174.8z"/>
<rect x="1363.2" y="-164.5" class="st0" width="38.9" height="111.2"/>
<path class="st0" d="M1417.8-109c0,11.6,2.4,21.7,7.1,30.3c4.8,8.6,11.4,15.2,19.9,19.8c8.5,4.6,18.3,6.9,29.2,6.9
	c14.1,0,26-3.9,35.7-11.7c9.6-7.8,15.9-18.6,18.6-32.3h-41.2c-2.2,7.3-6.9,10.9-13.9,10.9c-4.9,0-8.8-2-11.6-6.1
	c-2.8-4.1-4.3-10-4.3-17.8c0-7.8,1.4-13.7,4.3-17.7c2.8-4,6.7-6,11.6-6c6.9,0,11.5,3.6,13.9,10.9h41.2c-2.8-13.9-9-24.7-18.6-32.4
	c-9.6-7.7-21.5-11.6-35.7-11.6c-11,0-20.7,2.3-29.2,6.9c-8.5,4.6-15.2,11.2-19.9,19.8C1420.2-130.5,1417.8-120.5,1417.8-109z"/>
<polygon class="st0" points="1662.2,-53.3 1617.6,-108.6 1661.4,-164.5 1614.8,-164.5 1584.1,-120.9 1584.1,-200 1545.2,-200 
	1545.2,-53.3 1584.1,-53.3 1584.1,-98.9 1614.8,-53.3 "/>
<polygon class="st0" points="1806.5,-196.8 1766.9,-196.8 1766.9,-116.2 1714.2,-196.8 1674.7,-196.8 1674.7,-54.5 1714.2,-54.5 
	1714.2,-134 1766.9,-54.5 1806.5,-54.5 "/>
<polygon class="st0" points="1943.5,-54.5 1904.2,-109 1942.1,-165.7 1899.5,-165.7 1883.4,-137.7 1863.4,-165.7 1819.8,-165.7 
	1858.4,-112.2 1821.4,-54.5 1864,-54.5 1879.8,-82.4 1899.9,-54.5 "/>
<g>
	<polygon class="st0" points="2007.1,-194.8 2007.1,-194.8 2007.1,-196.6 1968,-196.6 1968,-194.8 1968,-194.8 1968,-171.1 
		2007.1,-171.1 	"/>
	<path class="st0" d="M2016.2-87.6c-3.3,0-5.7-0.7-7-2c-1.4-1.3-2.1-3.5-2.1-6.5v-37.3h20.2v-32.3h0v0h-72.9v32.3h13.7v36.7
		c0,28.2,14.2,42.2,42.6,42.2h16.9v-33.1H2016.2z"/>
</g>
</svg>
