<?xml version="1.0" encoding="utf-8"?>
<!-- Generator: Adobe Illustrator 25.2.0, SVG Export Plug-In . SVG Version: 6.00 Build 0)  -->
<svg version="1.1" id="Layer_1" xmlns="http://www.w3.org/2000/svg" xmlns:xlink="http://www.w3.org/1999/xlink" x="0px" y="0px"
	 viewBox="0 0 1080 330.6" style="enable-background:new 0 0 1080 330.6;" xml:space="preserve">
<style type="text/css">
	.st0{fill:#FFFFFF;}
</style>
<path class="st0" d="M249.2,264.4l-41.2-26l-2.5-1.6l-32.3-20.4c11.9-8.9,20.7-21.9,24.1-36.9c1-4.6,1.6-9.3,1.6-14.2
	c0-35.2-28.5-63.7-63.7-63.7s-63.7,28.5-63.7,63.7c0,35.2,28.5,63.7,63.7,63.7c3.3,0,6.5-0.3,9.7-0.7l-25-40.8l43.7,27.5l6.2,3.9
	l35.4,22.3c-10.9,10.1-24,17.8-38.6,22.4c-9.9,3.1-20.4,4.8-31.3,4.8c-56.9,0-103.1-46.2-103.1-103.1c0-56.9,46.2-103.1,103.1-103.1
	s103.1,46.2,103.1,103.1c0,20.3-5.9,39.2-16,55.1L249.2,264.4z M329.2,137v59.7c0,6.3-1.7,11.3-5,15c-3.3,3.6-7.8,5.5-13.5,5.5
	c-5.6,0-10-1.8-13.4-5.5c-3.4-3.6-5.1-8.6-5.1-15V137h-38.7v64.6c0,14.7,3.7,26.3,11.2,34.8c7.5,8.5,17.7,12.8,30.6,12.8
	c7.5,0,14.2-1.6,20-4.7c5.8-3.1,10.4-7.2,13.7-12.2v15.9h39.1V137H329.2z M403.6,126.7c5.7,0,10.4-1.9,13.9-5.6
	c3.5-3.7,5.3-8.4,5.3-13.9c0-5.7-1.8-10.5-5.3-14.2c-3.5-3.8-8.2-5.7-13.9-5.7c-5.9,0-10.6,1.9-14.1,5.7c-3.5,3.8-5.3,8.5-5.3,14.2
	c0,5.6,1.8,10.2,5.3,13.9C393.1,124.9,397.8,126.7,403.6,126.7z M384,137v111.2h38.9V137H384z M438.6,192.5
	c0,11.6,2.4,21.7,7.1,30.3c4.8,8.6,11.4,15.2,19.9,19.8c8.5,4.6,18.3,6.9,29.2,6.9c14.1,0,26-3.9,35.7-11.7
	c9.6-7.8,15.9-18.6,18.6-32.3H508c-2.2,7.3-6.9,10.9-13.9,10.9c-4.9,0-8.8-2-11.6-6.1c-2.8-4.1-4.3-10-4.3-17.8
	c0-7.8,1.4-13.7,4.3-17.7c2.8-4,6.7-6,11.6-6c6.9,0,11.5,3.6,13.9,10.9h41.2c-2.8-13.9-9-24.7-18.6-32.4
	c-9.6-7.7-21.5-11.6-35.7-11.6c-11,0-20.7,2.3-29.2,6.9c-8.5,4.6-15.2,11.2-19.9,19.8C441,170.9,438.6,181,438.6,192.5z M683,248.2
	l-44.6-55.3l43.8-55.9h-46.6l-30.7,43.6v-79.1H566v146.7h38.9v-45.6l30.7,45.6H683z M827.3,104.7h-39.6v80.5l-52.7-80.5h-39.6V247
	h39.6v-79.5l52.7,79.5h39.6V104.7z M964.3,247l-39.3-54.5l37.9-56.7h-42.6l-16.1,28l-20-28h-43.6l38.7,53.5L842.2,247h42.6l15.9-28
	l20,28H964.3z M1027.9,106.7L1027.9,106.7l0-1.8h-39.1v1.8h0v23.7h39.1V106.7z M1037,213.9c-3.3,0-5.7-0.7-7-2
	c-1.4-1.3-2.1-3.5-2.1-6.5v-37.3h20.2v-32.3h0v0h-72.9v32.3h13.7v36.7c0,28.2,14.2,42.2,42.6,42.2h16.9v-33.1H1037z"/>
</svg>
