<svg width="110" height="27" viewBox="0 0 110 27" fill="none" xmlns="http://www.w3.org/2000/svg">
	<path d="M12.2072 18.624C10.254 20.2777 8.46362 20.2505 6.02219 20.2505H0V1.32788H5.8323C8.11097 1.32788 10.254 1.35499 11.9088 3.17135C12.6954 4.03886 13.0481 5.12326 13.0481 6.28898C13.0481 7.88846 12.2614 9.29817 10.8508 10.1115C12.9125 10.8163 13.9704 12.3616 13.9704 14.5033C13.9433 16.0214 13.4007 17.6209 12.2072 18.624ZM6.51048 5.58412H4.63872V8.5391H6.48335C7.54131 8.5391 8.40937 8.24089 8.40937 7.02095C8.40937 5.801 7.48705 5.58412 6.51048 5.58412ZM7.05302 12.5514H4.61159V15.9943H7.02589C8.21948 15.9943 9.30456 15.5877 9.30456 14.1779C9.30456 12.8496 8.19235 12.5514 7.05302 12.5514Z" fill="black"/>
	<path d="M22.1068 20.7108C17.7665 20.7108 14.457 17.5118 14.457 13.1742C14.457 8.83665 17.7665 5.6377 22.1068 5.6377C26.4472 5.6377 29.7567 8.83665 29.7567 13.1742C29.7567 17.5118 26.4472 20.7108 22.1068 20.7108ZM22.1068 9.56862C20.1266 9.56862 18.716 11.2223 18.716 13.1471C18.716 15.0719 20.1537 16.7256 22.1068 16.7256C24.06 16.7256 25.4977 15.0719 25.4977 13.1471C25.4977 11.2223 24.06 9.56862 22.1068 9.56862Z" fill="black"/>
	<path d="M34.505 13.0151V20.2805H30.2461V6.07495H34.2338V8.1353H34.288C35.0204 6.67137 36.214 6.12917 37.8417 6.12917V10.4125C35.9699 10.4396 34.505 10.8192 34.505 13.0151Z" fill="black"/>
	<path d="M47.6631 20.2533V12.527C47.6631 10.9275 47.3647 9.57206 45.4386 9.57206C43.4584 9.57206 42.9972 10.8462 42.9972 12.527V20.2533H38.7383V6.07489H42.6988V7.59304H42.7531C43.6483 6.12911 44.8961 5.58691 46.6051 5.58691C47.7987 5.58691 49.3178 6.04778 50.2401 6.80686C51.5965 7.94547 51.8677 9.73472 51.8677 11.3884V20.2533H47.6631Z" fill="black"/>
	<path d="M61.6856 20.2516V9.29928H58.0235V20.2788H53.7646V9.29928H52.1641V6.07321H53.7646V5.31413C53.7646 1.87119 56.2331 0.976562 59.19 0.976562H59.841V4.17552C58.2948 4.17552 58.0235 4.47373 58.0235 6.07321H65.9446V20.2788L61.6856 20.2516ZM61.6856 4.55506V1.32899H65.9446V4.55506H61.6856Z" fill="black"/>
	<path d="M80.9739 23.232C79.5633 25.6176 76.3623 26.5936 73.7852 26.5936C71.3709 26.5936 68.9838 25.8616 67.5731 23.8013C67.112 23.1235 66.8136 22.3916 66.7051 21.6054H71.6151C72.0762 22.6356 73.0528 23.0151 74.1108 23.0151C76.4437 23.0151 77.5559 21.4156 77.5559 19.1655V18.7317H77.5016C76.7692 20.1143 75.1144 20.765 73.6225 20.765C69.3635 20.765 66.4609 17.4305 66.4609 13.2827C66.4609 9.10775 69.3093 5.6377 73.6225 5.6377C75.0873 5.6377 76.7149 6.12567 77.5288 7.42694H77.583V6.09856H81.842V18.5691C81.8148 20.1415 81.7877 21.8223 80.9739 23.232ZM74.1108 9.56862C72.1305 9.56862 70.6928 11.1681 70.6928 13.0929C70.6928 15.0719 72.0491 16.7527 74.0836 16.7527C76.1182 16.7527 77.5559 15.2617 77.5559 13.2284C77.5559 11.1952 76.2267 9.56862 74.1108 9.56862Z" fill="black"/>
	<path d="M91.7177 20.2505V12.5514C91.7177 11.0061 91.2837 9.59638 89.4391 9.59638C87.5944 9.59638 87.0519 10.7892 87.0519 12.4158V20.3048H82.793V1.32788H87.0519V7.37337H87.1062C87.8386 6.04499 89.3306 5.58412 90.7683 5.58412C92.1518 5.58412 93.7251 6.0721 94.6203 7.15649C95.9767 8.72886 95.9496 10.4097 95.9496 12.3616V20.3048H91.7177V20.2505Z" fill="black"/>
	<path d="M102.08 9.29817V20.2776H97.8214V9.29817H96.0039V6.0721H97.8214V1.32788H102.08V6.0721H104.115V9.29817H102.08Z" fill="black"/>
	<path d="M109.999 17.243C109.999 17.6496 109.917 18.0291 109.755 18.4087C109.592 18.7882 109.375 19.1135 109.104 19.3575C108.832 19.6286 108.507 19.8455 108.154 20.0082C107.801 20.1708 107.395 20.2521 106.988 20.2521C106.581 20.2521 106.201 20.1708 105.821 20.0082C105.441 19.8455 105.116 19.6286 104.872 19.3575C104.6 19.0864 104.383 18.7611 104.221 18.4087C104.058 18.0291 103.977 17.6496 103.977 17.243C103.977 16.8363 104.058 16.4568 104.221 16.0772C104.383 15.6977 104.6 15.3724 104.872 15.1284C105.143 14.8844 105.469 14.6404 105.821 14.4778C106.174 14.3151 106.581 14.2338 106.988 14.2338C107.395 14.2338 107.774 14.3151 108.154 14.4778C108.534 14.6404 108.859 14.8573 109.104 15.1284C109.375 15.3995 109.592 15.7248 109.755 16.0772C109.917 16.4297 109.999 16.8363 109.999 17.243ZM106.988 14.776C106.662 14.776 106.337 14.8302 106.038 14.9657C105.74 15.1013 105.469 15.2639 105.252 15.4808C105.035 15.6977 104.845 15.9688 104.736 16.267C104.6 16.5652 104.546 16.8905 104.546 17.2158C104.546 17.5412 104.6 17.8665 104.736 18.1647C104.872 18.4629 105.035 18.734 105.252 18.9509C105.469 19.1678 105.74 19.3575 106.038 19.466C106.337 19.5744 106.662 19.6557 106.988 19.6557C107.313 19.6557 107.639 19.6015 107.937 19.466C108.236 19.3304 108.507 19.1678 108.724 18.9509C108.941 18.734 109.131 18.4629 109.239 18.1647C109.348 17.8665 109.429 17.5412 109.429 17.2158C109.429 16.8905 109.375 16.5652 109.239 16.267C109.104 15.9688 108.941 15.6977 108.724 15.4808C108.507 15.2639 108.236 15.0742 107.937 14.9657C107.639 14.8302 107.34 14.776 106.988 14.776ZM107.666 17.5683L108.344 18.8153C108.371 18.8424 108.371 18.8967 108.344 18.9238C108.317 18.9509 108.29 18.978 108.263 18.978H107.747C107.693 18.978 107.666 18.9509 107.666 18.9238L107.015 17.7038H106.499V18.8695C106.499 18.8967 106.499 18.9238 106.472 18.9509C106.445 18.978 106.418 18.978 106.391 18.978H105.93C105.903 18.978 105.875 18.978 105.848 18.9509C105.821 18.9238 105.821 18.8967 105.821 18.8695V15.6435C105.821 15.6164 105.821 15.5893 105.848 15.5621C105.875 15.535 105.903 15.535 105.93 15.535H106.906C107.205 15.535 107.395 15.5621 107.557 15.6164C107.747 15.6977 107.91 15.8061 108.018 15.9959C108.127 16.1586 108.181 16.3754 108.181 16.5923C108.181 16.8092 108.127 16.9719 108.046 17.1616C107.937 17.3243 107.829 17.4598 107.666 17.5683C107.639 17.5141 107.639 17.5412 107.666 17.5683ZM107.476 16.5923C107.476 16.4025 107.422 16.267 107.286 16.1857C107.205 16.1586 107.069 16.1315 106.879 16.1315H106.472V17.0803H107.015C107.15 17.0803 107.286 17.0261 107.367 16.9447C107.449 16.8634 107.476 16.755 107.476 16.5923Z" fill="black"/>
</svg>
