<?xml version="1.0" encoding="utf-8"?>
<!-- Generator: Adobe Illustrator 21.0.0, SVG Export Plug-In . SVG Version: 6.00 Build 0)  -->
<svg version="1.1" id="Layer_1" xmlns="http://www.w3.org/2000/svg" xmlns:xlink="http://www.w3.org/1999/xlink" x="0px" y="0px"
	 viewBox="0 0 128 128" style="enable-background:new 0 0 128 128;" xml:space="preserve">
<style type="text/css">
	.st0{fill:#FFFFFF;}
</style>
<g id="Clip-2">
</g>
<g id="Clip-2_1_">
</g>
<path class="st0" d="M89,42.8c6.4-4.2,10.3-10.2,10.4-17.8c0-5.5-1.6-9.3-5.3-13.3c-6-5.7-17.5-6.6-28.5-0.4L24.4,33.4L24.3,121
	l42-22.7c12.5-6.9,19.4-9.8,29.1-16.3c5.5-4.6,8.2-11.7,8.2-18.7C103.7,53.3,98.7,46.1,89,42.8z M41.2,44.3l29.5-16.3
	c4.6-2.5,9.1-1,8.9,3.8c-0.2,4.2-3.6,7-9,9.8L41.2,57.9L41.2,44.3z M74.1,75.7L41.2,93.5l0-16.1l32.9-18c5-2.7,10.6-0.9,10.6,5
	C84.8,69.9,79.7,72.6,74.1,75.7z"/>
</svg>
